# File created by Blade
# Date/Time:  Wed Jan 21 17:05:57 2015
# Frame Rate: 120.000 fps
#------------------------------------------------------
:FULLY-SPECIFIED
:DEGREES
668
root 19.812938 35.508049 -23.520629 -172.359978 0.134281 -179.176892
Spine -17.597039 -0.249249 1.453404
Head 6.950040 0.404573 -0.827071
LeftShoulder -14.631759 -30.261707 20.129747
LeftArm 0.835959 -0.100857 -8.653576
LeftForeArm 11.488708 0.000000 -3.391939
LeftHand -7.326628 -0.000000 0.131735
LeftHandThumb1 -26.253704 0.000000 33.147579
RightShoulder -12.275827 -5.471759 -10.849802
RightArm 7.103341 42.152292 12.585984
RightForeArm -36.314140 -0.000000 4.339369
RightHand -5.845332 -0.000000 2.155638
RightHandThumb1 -24.326973 -0.000000 -32.862282
LeftUpLeg 2.465667 13.783786 3.499979
LeftLeg -6.319987 -0.000000 0.000000
LeftFoot -19.477047 24.317126 -16.737680
LeftToeBase 24.371916 -0.000000 -0.000000
RightUpLeg 0.659091 -13.339903 -0.491512
RightLeg -3.954632 -0.000000 0.000000
RightFoot -21.192497 -29.365045 17.217800
RightToeBase 23.025174 -0.000000 -0.000000
669
root 19.808784 35.506284 -23.529422 -172.361237 0.112860 -179.184489
Spine -17.589506 -0.263722 1.465777
Head 6.958796 0.344183 -0.850264
LeftShoulder -14.623385 -30.255383 20.125430
LeftArm 0.845996 -0.107069 -8.649153
LeftForeArm 11.454555 -0.000000 -3.384207
LeftHand -7.317216 -0.000000 0.140023
LeftHandThumb1 -26.253704 0.000000 33.147579
RightShoulder -12.273384 -5.474274 -10.858868
RightArm 7.126460 42.156552 12.580737
RightForeArm -36.303762 0.000000 4.337158
RightHand -5.843945 -0.000000 2.139350
RightHandThumb1 -24.326973 -0.000000 -32.862282
LeftUpLeg 2.486259 13.732431 3.491969
LeftLeg -6.332669 -0.000000 0.000000
LeftFoot -19.492925 24.346228 -16.728255
LeftToeBase 24.391417 -0.000000 -0.000000
RightUpLeg 0.682345 -13.378490 -0.509819
RightLeg -3.961753 -0.000000 0.000000
RightFoot -21.194567 -29.315963 17.264636
RightToeBase 22.886529 -0.000000 -0.000000
670
root 19.804931 35.505011 -23.537216 -172.358598 0.109015 -179.189572
Spine -17.583792 -0.264516 1.470812
Head 6.978450 0.322142 -0.851720
LeftShoulder -14.609933 -30.267766 20.129549
LeftArm 0.838255 -0.084473 -8.637406
LeftForeArm 11.449495 0.000000 -3.370763
LeftHand -7.261768 0.000000 0.086659
LeftHandThumb1 -26.253704 0.000000 33.147579
RightShoulder -12.258617 -5.440348 -10.869108
RightArm 7.135403 42.155212 12.587557
RightForeArm -36.185607 0.000000 4.364467
RightHand -5.995073 0.000000 2.082888
RightHandThumb1 -24.326973 -0.000000 -32.862282
LeftUpLeg 2.494150 13.716345 3.483547
LeftLeg -6.328330 -0.000000 0.000000
LeftFoot -19.516156 24.346254 -16.740113
LeftToeBase 24.401604 -0.000000 -0.000000
RightUpLeg 0.690902 -13.363158 -0.524064
RightLeg -3.952936 -0.000000 0.000000
RightFoot -21.216971 -29.352696 17.206806
RightToeBase 23.024899 -0.000000 -0.000000
671
root 19.800429 35.503680 -23.545958 -172.358902 0.090398 -179.196097
Spine -17.574687 -0.262792 1.470029
Head 6.995203 0.295557 -0.844016
LeftShoulder -14.583075 -30.279009 20.116075
LeftArm 0.855639 -0.092387 -8.618769
LeftForeArm 11.541394 0.000000 -3.390114
LeftHand -7.307728 0.000000 0.266267
LeftHandThumb1 -26.253704 0.000000 33.147579
RightShoulder -12.253667 -5.443149 -10.853173
RightArm 7.127153 42.190849 12.553528
RightForeArm -36.218496 -0.000000 4.361376
RightHand -6.026058 -0.000000 2.063730
RightHandThumb1 -24.326973 -0.000000 -32.862282
LeftUpLeg 2.508277 13.681401 3.476506
LeftLeg -6.325752 -0.000000 0.000000
LeftFoot -19.506577 24.358773 -16.699736
LeftToeBase 24.349760 -0.000000 -0.000000
RightUpLeg 0.710587 -13.369217 -0.539243
RightLeg -3.960429 -0.000000 0.000000
RightFoot -21.223145 -29.359435 17.269753
RightToeBase 22.838610 -0.000000 -0.000000
672
root 19.797608 35.502024 -23.554000 -172.353507 0.067148 -179.199732
Spine -17.582979 -0.276162 1.479104
Head 7.052518 0.334525 -0.839187
LeftShoulder -14.549446 -30.291545 20.094881
LeftArm 0.856406 -0.074475 -8.583502
LeftForeArm 11.576844 -0.000000 -3.376413
LeftHand -7.340201 -0.000000 0.228524
LeftHandThumb1 -26.253704 0.000000 33.147579
RightShoulder -12.250790 -5.522119 -10.845647
RightArm 7.148243 42.233644 12.556399
RightForeArm -36.127028 -0.000000 4.402517
RightHand -6.018890 -0.000000 2.166732
RightHandThumb1 -24.326973 -0.000000 -32.862282
LeftUpLeg 2.517712 13.664304 3.471222
LeftLeg -6.341394 -0.000000 0.000000
LeftFoot -19.531595 24.352841 -16.737860
LeftToeBase 24.332056 -0.000000 -0.000000
RightUpLeg 0.723441 -13.366693 -0.543894
RightLeg -3.961042 -0.000000 0.000000
RightFoot -21.251838 -29.397712 17.212572
RightToeBase 23.001078 -0.000000 -0.000000
673
root 19.794219 35.500904 -23.562739 -172.349284 0.052640 -179.204991
Spine -17.585021 -0.281854 1.478860
Head 7.087109 0.363876 -0.821793
LeftShoulder -14.536065 -30.288636 20.086238
LeftArm 0.882524 -0.031053 -8.565372
LeftForeArm 11.571930 0.000000 -3.380816
LeftHand -7.344470 -0.000000 0.168114
LeftHandThumb1 -26.253704 0.000000 33.147579
RightShoulder -12.240646 -5.486389 -10.844700
RightArm 7.132521 42.150331 12.514155
RightForeArm -36.097886 -0.000000 4.381984
RightHand -5.987142 -0.000000 2.170153
RightHandThumb1 -24.326973 -0.000000 -32.862282
LeftUpLeg 2.540000 13.636420 3.463506
LeftLeg -6.370119 -0.000000 0.000000
LeftFoot -19.532268 24.371463 -16.739205
LeftToeBase 24.313880 -0.000000 -0.000000
RightUpLeg 0.733079 -13.375181 -0.553576
RightLeg -3.957378 -0.000000 0.000000
RightFoot -21.265477 -29.412463 17.215788
RightToeBase 23.000852 -0.000000 -0.000000
674
root 19.790094 35.499433 -23.572205 -172.350878 0.038384 -179.212118
Spine -17.575613 -0.293726 1.478594
Head 7.080187 0.391113 -0.791542
LeftShoulder -14.554135 -30.298778 20.121901
LeftArm 0.903648 -0.010195 -8.595334
LeftForeArm 11.515188 -0.000000 -3.373046
LeftHand -7.280406 -0.000000 0.041112
LeftHandThumb1 -26.253704 0.000000 33.147579
RightShoulder -12.224444 -5.423677 -10.842505
RightArm 7.095327 42.054129 12.453746
RightForeArm -36.031093 -0.000000 4.380985
RightHand -5.973539 0.000000 2.204338
RightHandThumb1 -24.326973 -0.000000 -32.862282
LeftUpLeg 2.547949 13.641759 3.455896
LeftLeg -6.353734 -0.000000 0.000000
LeftFoot -19.545785 24.336812 -16.725710
LeftToeBase 24.357006 -0.000000 -0.000000
RightUpLeg 0.752708 -13.379522 -0.570357
RightLeg -3.955917 -0.000000 0.000000
RightFoot -21.291602 -29.410860 17.247622
RightToeBase 22.987689 -0.000000 -0.000000
675
root 19.786091 35.497595 -23.581841 -172.346733 0.017881 -179.220840
Spine -17.583540 -0.315392 1.478280
Head 7.127831 0.423954 -0.801727
LeftShoulder -14.551432 -30.295838 20.143955
LeftArm 0.908766 0.023035 -8.605862
LeftForeArm 11.481978 0.000000 -3.362422
LeftHand -7.264004 -0.000000 -0.008893
LeftHandThumb1 -26.253704 0.000000 33.147579
RightShoulder -12.232119 -5.463797 -10.843236
RightArm 7.149025 42.088128 12.496810
RightForeArm -36.093572 0.000000 4.349644
RightHand -5.918402 -0.000000 2.131159
RightHandThumb1 -24.326973 -0.000000 -32.862282
LeftUpLeg 2.561522 13.613947 3.447195
LeftLeg -6.362696 -0.000000 0.000000
LeftFoot -19.562644 24.344119 -16.722427
LeftToeBase 24.380791 -0.000000 -0.000000
RightUpLeg 0.772556 -13.409041 -0.586633
RightLeg -3.964826 -0.000000 0.000000
RightFoot -21.298335 -29.406364 17.224289
RightToeBase 22.961272 -0.000000 -0.000000
676
root 19.782005 35.496078 -23.592017 -172.344966 -0.000562 -179.231982
Spine -17.594033 -0.330974 1.473863
Head 7.155980 0.401928 -0.811593
LeftShoulder -14.549055 -30.272933 20.160368
LeftArm 0.931804 0.040985 -8.625902
LeftForeArm 11.428691 0.000000 -3.370007
LeftHand -7.325571 0.000000 0.084496
LeftHandThumb1 -26.253704 0.000000 33.147579
RightShoulder -12.225390 -5.470232 -10.842480
RightArm 7.171611 42.152366 12.511427
RightForeArm -36.155683 -0.000000 4.342186
RightHand -5.952156 -0.000000 2.121263
RightHandThumb1 -24.326973 -0.000000 -32.862282
LeftUpLeg 2.579643 13.606052 3.433815
LeftLeg -6.375878 -0.000000 0.000000
LeftFoot -19.558066 24.333420 -16.716354
LeftToeBase 24.335199 -0.000000 -0.000000
RightUpLeg 0.790596 -13.437782 -0.604407
RightLeg -3.965577 -0.000000 0.000000
RightFoot -21.322644 -29.401611 17.228829
RightToeBase 23.025468 -0.000000 -0.000000
677
root 19.778655 35.494590 -23.602410 -172.348745 -0.006033 -179.229042
Spine -17.592939 -0.315716 1.480096
Head 7.168150 0.359876 -0.815950
LeftShoulder -14.530710 -30.235294 20.156505
LeftArm 0.964390 0.022415 -8.642057
LeftForeArm 11.427104 -0.000000 -3.393494
LeftHand -7.383534 -0.000000 0.192244
LeftHandThumb1 -26.253704 0.000000 33.147579
RightShoulder -12.244966 -5.473201 -10.842240
RightArm 7.197809 42.228142 12.526809
RightForeArm -36.294479 -0.000000 4.348721
RightHand -5.978507 -0.000000 2.213408
RightHandThumb1 -24.326973 -0.000000 -32.862282
LeftUpLeg 2.613448 13.593606 3.438342
LeftLeg -6.398537 -0.000000 0.000000
LeftFoot -19.569940 24.329925 -16.718768
LeftToeBase 24.395599 -0.000000 -0.000000
RightUpLeg 0.814251 -13.431946 -0.610163
RightLeg -3.968606 -0.000000 0.000000
RightFoot -21.333601 -29.422154 17.234386
RightToeBase 23.042015 -0.000000 -0.000000
678
root 19.777071 35.493482 -23.611226 -172.347283 -0.025603 -179.234836
Spine -17.590222 -0.330983 1.469212
Head 7.175760 0.340608 -0.794257
LeftShoulder -14.521378 -30.223335 20.170916
LeftArm 0.981870 0.017641 -8.650296
LeftForeArm 11.370638 -0.000000 -3.407123
LeftHand -7.401287 -0.000000 0.221442
LeftHandThumb1 -26.253704 0.000000 33.147579
RightShoulder -12.242593 -5.446046 -10.838184
RightArm 7.186282 42.239552 12.524450
RightForeArm -36.314107 -0.000000 4.361843
RightHand -5.961863 -0.000000 2.238501
RightHandThumb1 -24.326973 -0.000000 -32.862282
LeftUpLeg 2.625319 13.575000 3.435301
LeftLeg -6.402693 -0.000000 0.000000
LeftFoot -19.585792 24.328354 -16.726798
LeftToeBase 24.396409 -0.000000 -0.000000
RightUpLeg 0.827135 -13.462616 -0.618471
RightLeg -3.963494 -0.000000 0.000000
RightFoot -21.353978 -29.418978 17.239039
RightToeBase 23.021063 -0.000000 -0.000000
